<?xml version="1.0" ?><svg viewBox="0 0 440.2 455.26" xmlns="http://www.w3.org/2000/svg"><defs><style>.cls-1{fill:#173156;}</style></defs><title/><g data-name="Capa 2" id="Capa_2"><g id="Outline"><g id="Hamburguer"><path class="cls-1" d="M232.64,156.37a4.93,4.93,0,0,0,3.6,1.57,5.17,5.17,0,0,0,1.58-.26,4.92,4.92,0,0,0,3.38-4.13c2-16.4,1.61-17.57,1.3-18.52a11.53,11.53,0,0,0-21.9,7.2C220.91,143.18,221.3,144.36,232.64,156.37Zm-5.13-19.78a4.47,4.47,0,0,1,2.62-2.26,4.54,4.54,0,0,1,5.63,2.63c0,1.08-.22,4.61-1,11.44-4.68-5-7-7.72-7.59-8.62A4.47,4.47,0,0,1,227.51,136.59Z"/><path class="cls-1" d="M97.48,134a3.89,3.89,0,0,0,1.24.15c1.66,0,5.59-.47,17.15-2.65h0a5,5,0,0,0,2.25-8.73c-12.73-10.53-13.93-10.84-14.89-11.09A11.53,11.53,0,0,0,97.48,134ZM96,121.66a4.54,4.54,0,0,1,4.39-3.4,4.26,4.26,0,0,1,.86.09c.93.55,3.77,2.67,9.09,7-6.76,1.22-10.26,1.7-11.35,1.74A4.53,4.53,0,0,1,96,121.66Z"/><path class="cls-1" d="M95.35,214.09a11.46,11.46,0,0,0,5.3-1.3c.89-.46,2-1,12-14.17a5,5,0,0,0-4.17-8c-16.51.69-17.6,1.26-18.49,1.72a11.53,11.53,0,0,0,5.35,21.75ZM91,201.2a4.54,4.54,0,0,1,2-2.52c1.06-.21,4.58-.53,11.45-.87-4.21,5.43-6.5,8.14-7.28,8.89A4.53,4.53,0,0,1,91,201.2Z"/><path class="cls-1" d="M344.35,220.93a11.55,11.55,0,0,0,10.25,6.2,11.35,11.35,0,0,0,5.3-1.31c.88-.46,2-1,12-14.16a5,5,0,0,0-4.17-8c-16.5.68-17.6,1.26-18.49,1.72A11.54,11.54,0,0,0,344.35,220.93Zm7.9-9.21c1.06-.21,4.58-.53,11.45-.87-4.21,5.43-6.5,8.13-7.28,8.89a4.53,4.53,0,0,1-4.17-8Z"/><path class="cls-1" d="M174.6,175.42a4.92,4.92,0,0,0-.92,5.26c6.32,15.26,7.24,16.1,8,16.77a11.46,11.46,0,0,0,7.75,3H190a11.53,11.53,0,0,0,7.23-20c-.73-.67-1.65-1.5-17.43-6.39A4.93,4.93,0,0,0,174.6,175.42Zm18.06,10.36a4.52,4.52,0,0,1-3,7.67,4.45,4.45,0,0,1-3.06-1c-.56-.92-2.07-4.12-4.75-10.45C188.37,184.09,191.69,185.3,192.66,185.78Z"/><path class="cls-1" d="M168.56,117.85h.05A4.93,4.93,0,0,0,173.1,115c7.17-14.88,7.18-16.12,7.19-17.11a11.54,11.54,0,0,0-11.41-11.65h-.11a11.53,11.53,0,0,0-11.53,11.41c0,1,0,2.24,6.84,17.26A4.93,4.93,0,0,0,168.56,117.85Zm.21-24.58h0a4.54,4.54,0,0,1,4.48,4.3c-.32,1-1.69,4.3-4.63,10.51-2.81-6.27-4.11-9.56-4.41-10.6A4.54,4.54,0,0,1,168.77,93.27Z"/><path class="cls-1" d="M334.61,150.76h.05a4.94,4.94,0,0,0,4.49-2.81c7.17-14.89,7.18-16.13,7.19-17.12a11.54,11.54,0,0,0-11.41-11.65h-.12a11.54,11.54,0,0,0-11.52,11.41c0,1,0,2.24,6.84,17.26A4.93,4.93,0,0,0,334.61,150.76Zm.25-24.58a4.54,4.54,0,0,1,4.48,4.3c-.32,1-1.69,4.3-4.63,10.51-2.81-6.27-4.12-9.56-4.41-10.6A4.54,4.54,0,0,1,334.86,126.18Z"/><path class="cls-1" d="M278.23,197a5,5,0,0,0,5.33-.27c13.49-9.54,14.1-10.62,14.59-11.48a11.53,11.53,0,0,0-4.33-15.72h0a11.52,11.52,0,0,0-15.72,4.34c-.49.86-1.1,1.94-2.38,18.41A4.93,4.93,0,0,0,278.23,197Zm6.1-19.91a4.53,4.53,0,0,1,7.86,4.46c-.78.75-3.56,2.94-9.14,6.95C283.64,181.62,284.08,178.11,284.33,177.06Z"/><path class="cls-1" d="M246.15,90.29c.74.66,1.67,1.48,17.53,6.1a5,5,0,0,0,6-6.76c-6.57-15.15-7.5-16-8.25-16.63a11.53,11.53,0,0,0-16.27,1A11.54,11.54,0,0,0,246.15,90.29Zm4.22-11.64a4.54,4.54,0,0,1,6.18-.58c.58.92,2.15,4.09,4.93,10.38-6.58-2-9.92-3.14-10.9-3.59A4.54,4.54,0,0,1,250.37,78.65Z"/><path class="cls-1" d="M408.16,378.33H401c7.47-7.78,14-17.26,14-32.52a52.84,52.84,0,0,0-.69-8.55c16.23-1.78,25.82-18.44,25.82-34.59,0-18.18-11.81-30.87-28.71-30.87h-6.15V253.53A37.2,37.2,0,0,0,420.19,243a36.58,36.58,0,0,0,8.28-29.62C418,149.13,377.58,92.61,320.15,61.63L326.56,44,392,68.49a3.49,3.49,0,0,0,4.4-4.74L386.29,41.83l21.74-10a3.5,3.5,0,0,0-.27-6.46L338.78.21a3.51,3.51,0,0,0-2.68.12,3.45,3.45,0,0,0-1.8,2l-13.1,36v0l-7.31,20.07a211.18,211.18,0,0,0-302.15,155A36.55,36.55,0,0,0,20,243a37.17,37.17,0,0,0,14.84,10.57V271.8H32.11c-13.36,0-22.73,4.32-27.86,12.85C0,291.72,0,299.94,0,304.85c0,18.06,9.55,29.67,25.89,32.1a53.33,53.33,0,0,0-.75,8.86,47.85,47.85,0,0,0,12.38,32.52H32A23.1,23.1,0,0,0,9,401.4v7.43a46.49,46.49,0,0,0,46.44,46.43H384.8a46.48,46.48,0,0,0,46.43-46.43V401.4A23.1,23.1,0,0,0,408.16,378.33ZM339.68,8l57.71,21-17.21,8a3.5,3.5,0,0,0-1.71,4.65l8,17.36L329,37.43ZM423.2,302.67c0,10.62-6.06,17.76-11.71,17.76a19.42,19.42,0,0,1-3-.21A52.84,52.84,0,0,0,382,296.73a8.45,8.45,0,0,0-3.18-.62h0c-19.11,0-26.45,7.72-32.34,13.92-5.53,5.81-9.9,10.4-27,10.4-14.87,0-24.79-3.79-34.17-8.43l22-23.2H411.49C421.68,288.8,423.2,297.49,423.2,302.67Zm-184.46-4h0L229,288.8h54.86l-18.6,19.62,0,0-.06.07h0L257,317.17ZM51.86,256.06H388.34V271.8H51.86ZM33,232a19.62,19.62,0,0,1-4.46-15.87A194.19,194.19,0,0,1,308,74.47l-14.23,39.1a3.49,3.49,0,0,0,2.09,4.48,3.37,3.37,0,0,0,1.2.21,3.5,3.5,0,0,0,3.29-2.3l13.89-38.18a195.07,195.07,0,0,1,97.42,138.3A19.61,19.61,0,0,1,407.24,232a20.16,20.16,0,0,1-15.37,7.11H48.33A20.13,20.13,0,0,1,33,232Zm-16,72.9c0-9.32,0-16.05,15.11-16.05h173l9.73,9.87c-9.22,2.6-16,6.78-22.2,10.65-9.59,6-17.87,11.11-35.13,11.11-18,0-25.15-5.65-32.7-11.63-7.37-5.84-15.72-12.45-31.68-12.45-17.8,0-30,8.23-39.81,14.85-6.34,4.28-11.83,8-17.63,9h0a17.92,17.92,0,0,1-3.09.27C21.66,320.43,17,315.77,17,304.85Zm25.14,41a35.76,35.76,0,0,1,1.45-10.11c7.16-2.26,13.29-6.39,19.25-10.41,9.1-6.14,17.7-11.94,30.3-11.94,10,0,14.69,3.68,21.12,8.77,8.61,6.82,19.33,15.31,43.26,15.31,22.11,0,33.8-7.27,44.1-13.68,8.13-5.05,15.26-9.46,27.69-10.43l21.73,22a8.44,8.44,0,0,0,6,2.54h.08a8.51,8.51,0,0,0,6.09-2.66l9.83-10.38c11.7,6.08,25.17,12.57,46.37,12.57,24.42,0,32.69-8.7,39.34-15.68,4.7-4.94,7.88-8.28,18.35-8.61a36,36,0,0,1,17.66,17.69h0a35.53,35.53,0,0,1,3.26,15c0,9.58-3.86,15.32-10.52,22a35.76,35.76,0,0,1-25.43,10.53h-284C57.25,378.33,42.14,364.65,42.14,345.81Zm372.09,63a29.46,29.46,0,0,1-29.43,29.43H55.41A29.47,29.47,0,0,1,26,408.83V401.4A6.07,6.07,0,0,1,32,395.33H408.16a6.07,6.07,0,0,1,6.07,6.07Z"/><path class="cls-1" d="M74.93,146a3.5,3.5,0,0,0-5,.22C59.22,158,44.05,192.56,39.92,214.75a3.5,3.5,0,0,0,2.8,4.08,2.86,2.86,0,0,0,.65.06A3.49,3.49,0,0,0,46.8,216c3.8-20.41,18.63-54.5,28.35-65.14A3.5,3.5,0,0,0,74.93,146Z"/><path class="cls-1" d="M142.77,424.48H56.53c-9.35,0-16.12-7.9-16.12-13.23a3.5,3.5,0,0,0-7,0c0,9.35,10.1,20.23,23.12,20.23h86.24a3.5,3.5,0,0,0,0-7Z"/></g></g></g></svg>